<?xml version="1.0" standalone="no"?>
<!DOCTYPE svg PUBLIC "-//W3C//DTD SVG 20010904//EN"
 "http://www.w3.org/TR/2001/REC-SVG-20010904/DTD/svg10.dtd">
<svg version="1.0" xmlns="http://www.w3.org/2000/svg"
 width="300.000000pt" height="300.000000pt" viewBox="0 0 300.000000 300.000000"
 preserveAspectRatio="xMidYMid meet">
<metadata>
Created by potrace 1.11, written by Peter Selinger 2001-2013
</metadata>
<g transform="translate(0.000000,300.000000) scale(0.100000,-0.100000)"
fill="#000000" stroke="none">
<path d="M0 1500 l0 -1500 1500 0 1500 0 0 1500 0 1500 -1500 0 -1500 0 0
-1500z m1210 755 l0 -405 57 46 c97 79 200 114 336 114 309 -1 525 -198 600
-550 25 -115 30 -409 9 -530 -54 -315 -223 -523 -467 -575 -196 -41 -370 0
-502 120 l-61 55 -7 -67 c-3 -38 -8 -74 -10 -80 -3 -10 -52 -13 -200 -13
l-195 0 0 1145 0 1145 220 0 220 0 0 -405z"/>
<path d="M1390 1647 c-64 -18 -114 -51 -150 -99 l-30 -42 0 -328 0 -328 26
-39 c86 -130 314 -162 437 -60 39 32 77 96 96 164 34 117 32 414 -4 532 -39
129 -128 201 -257 209 -43 2 -92 -1 -118 -9z"/>
</g>
</svg>
