<?xml version="1.0" standalone="no"?>
<!DOCTYPE svg PUBLIC "-//W3C//DTD SVG 20010904//EN"
 "http://www.w3.org/TR/2001/REC-SVG-20010904/DTD/svg10.dtd">
<svg version="1.0" xmlns="http://www.w3.org/2000/svg"
 width="722.000000pt" height="722.000000pt" viewBox="0 0 722.000000 722.000000"
 preserveAspectRatio="xMidYMid meet">
<metadata>
Created by potrace 1.11, written by Peter Selinger 2001-2013
</metadata>
<g transform="translate(0.000000,722.000000) scale(0.100000,-0.100000)"
fill="#000000" stroke="none">
<path d="M1120 3610 c0 -1980 2 -3600 5 -3600 2 0 222 121 487 269 266 147
510 283 543 301 33 18 65 36 70 40 6 4 44 25 85 47 41 22 314 173 605 335 292
162 557 310 590 328 33 18 65 36 70 40 6 4 42 24 80 45 85 45 114 62 430 238
138 77 275 153 305 169 134 73 277 152 300 167 14 8 39 23 55 31 69 37 129 71
298 165 98 55 195 109 215 120 20 12 182 102 360 200 178 99 358 199 400 221
42 23 78 46 79 51 2 6 -11 18 -29 27 -18 9 -67 35 -109 59 -42 23 -331 184
-642 357 l-566 314 224 226 c123 124 325 328 449 455 l226 229 -53 32 c-28 18
-103 63 -165 101 -62 37 -138 84 -170 104 -43 27 -383 235 -522 320 -61 37
-298 181 -310 189 -28 17 -252 155 -285 175 -19 11 -80 48 -137 83 -57 35
-112 69 -122 75 -11 7 -43 26 -70 43 -28 17 -233 143 -456 279 -223 137 -666
408 -985 603 -319 195 -730 447 -913 559 -182 111 -334 203 -337 203 -3 0 -5
-1620 -5 -3600z"/>
</g>
</svg>
